# xmcd
#
# Track frame offsets: 
#        150
#        12708
#        24905
#        37260
#        50043
#        63648
#        75798
#        91140
#        105315
#        118735
#        129770
#        143135
#        154815
#        164383
#        176450
#        188695
#        200788
#        213688
#        224923
#        237130
#
# Disc length: 3325 seconds
#
# Revision: 1
# Processed by: cddbd v1.5.2PL0 Copyright (c) Steve Scherf et al.
# Submitted via: ExactAudioCopy v0.95b2
#
DISCID=1d0cfb14
DTITLE=Joe Liggins and The Honeydrippers - Vol. 2 - Dripper's Boogie
DYEAR=1992
DGENRE=R&B
TTITLE0=Sentimental Lover
TTITLE1=Little Joe's Boogie aka Guitar Boogie
TTITLE2=Daddy On My Mind
TTITLE3=Little Joe's Boogie aka Guitar Boogie (long)
TTITLE4=Bob Is My Guy
TTITLE5=That's The One For Me
TTITLE6=Little Black Book
TTITLE7=So Alone
TTITLE8=Oh How I Miss You
TTITLE9=Boogie-Woogie Lou
TTITLE10=Cryin' Over You
TTITLE11=Dripper's Boogie
TTITLE12=My Heart Cried
TTITLE13=Farewell Blues
TTITLE14=Deep Feeling Kind Of Love
TTITLE15=Hey, Betty Martin
TTITLE16=Everyone's Down On Me
TTITLE17=Make Love To Me
TTITLE18=Tenderly
TTITLE19=Tears On My Pillow
EXTD=Abdel Presume
EXTT0=
EXTT1=
EXTT2=
EXTT3=
EXTT4=
EXTT5=
EXTT6=
EXTT7=
EXTT8=
EXTT9=
EXTT10=
EXTT11=
EXTT12=
EXTT13=
EXTT14=
EXTT15=
EXTT16=
EXTT17=
EXTT18=
EXTT19=
PLAYORDER=
